<svg width="63" height="62" viewBox="0 0 63 62" fill="none" xmlns="http://www.w3.org/2000/svg">
<path d="M27.6944 0.244102C27.4114 0.391758 27.0546 0.674763 26.8946 0.896244C26.6362 1.26538 26.6239 1.37612 26.587 4.80909L26.5501 8.3528H25.8856C24.7905 8.3528 24.2368 8.68502 24.2245 9.34947C24.2245 9.53403 24.3353 9.81704 24.4829 10.0016C24.729 10.3215 24.7536 10.3215 26.304 10.3215C28.6172 10.3215 28.4081 10.7276 28.4081 6.13798C28.4081 4.05851 28.445 2.26205 28.4819 2.15131C28.5434 1.97905 28.9249 1.95444 31.4842 1.95444C34.0436 1.95444 34.425 1.97905 34.4865 2.15131C34.5234 2.26205 34.5603 4.04621 34.5603 6.12568C34.5603 9.64478 34.5726 9.92778 34.7818 10.1123C34.991 10.2969 35.4832 10.3215 39.273 10.3215C42.9767 10.3215 43.555 10.3461 43.7149 10.5184C43.8872 10.6784 43.9118 11.109 43.9118 13.3731C43.9118 14.8373 43.8626 16.1047 43.8134 16.1908C43.7395 16.3015 42.5952 16.3508 39.396 16.3754C35.3478 16.4123 35.0648 16.4246 34.8187 16.6461L34.5603 16.8798V29.209C34.5603 38.622 34.5234 41.5628 34.4127 41.6735C34.2035 41.8827 28.7649 41.8827 28.5557 41.6735C28.445 41.5628 28.4081 38.622 28.4081 29.209V16.8798L28.1497 16.6461C27.9036 16.4246 27.6206 16.4123 23.5724 16.3754C20.3732 16.3508 19.2289 16.3015 19.1551 16.1908C19.1058 16.1047 19.0566 14.8373 19.0566 13.3731C19.0566 10.1862 18.9951 10.3215 20.4101 10.3215C21.3084 10.3215 21.3945 10.2969 21.6283 10.0016C21.7759 9.81704 21.8867 9.53403 21.8867 9.34947C21.8744 8.67272 21.3207 8.3528 20.1886 8.3528C18.7121 8.3651 18.0476 8.64811 17.4939 9.46021C17.2109 9.85395 17.2109 9.94009 17.2109 13.3977C17.2109 16.8675 17.2109 16.9414 17.4939 17.3474C17.6416 17.5689 17.9615 17.8888 18.183 18.0365C18.6014 18.3195 18.6506 18.3195 22.5757 18.3195H26.5624V30.2795V42.2518L26.8454 42.7317C27.0177 43.0393 27.3253 43.3223 27.6575 43.5069C28.1866 43.7776 28.285 43.7899 31.4596 43.7899C34.5234 43.7899 34.7572 43.7776 35.2617 43.5315C35.6185 43.3592 35.9015 43.1008 36.0984 42.7563L36.406 42.2272V30.2795V18.3195H40.3927C44.3178 18.3195 44.3671 18.3195 44.7854 18.0365C45.0069 17.8888 45.3268 17.5689 45.4745 17.3474C45.7575 16.9414 45.7575 16.8675 45.7575 13.3977C45.7575 9.94009 45.7575 9.85395 45.4868 9.46021C45.093 8.8942 44.6501 8.58659 44.0225 8.46354C43.7272 8.41432 41.8939 8.3651 39.9497 8.3528H36.406V4.95675C36.406 1.10542 36.3691 0.945461 35.5078 0.379456L35.0156 0.0472298L31.6196 0.0103188C28.3589 -0.0142899 28.1989 -0.0142899 27.6944 0.244102Z" fill="#C0304F"/>
<path d="M30.8066 3.98491L30.4989 4.28022V8.35302V12.4135H25.9709C21.5782 12.4135 21.4305 12.4258 21.1721 12.6596C20.7661 13.0411 20.803 13.7916 21.2213 14.1239C21.5412 14.3699 21.6889 14.3822 26.0201 14.3822H30.4989V26.9329V39.4958L30.8066 39.7911C31.2003 40.1972 31.7663 40.1972 32.1601 39.7911L32.4677 39.4958V26.9329V14.3822H36.9465C41.2777 14.3822 41.4254 14.3699 41.7453 14.1239C42.1637 13.7916 42.2006 13.0411 41.7945 12.6596C41.5361 12.4258 41.3885 12.4135 36.9957 12.4135H32.4677V8.35302V4.28022L32.1601 3.98491C31.9755 3.78804 31.7171 3.6773 31.4833 3.6773C31.2495 3.6773 30.9911 3.78804 30.8066 3.98491Z" fill="#C0304F"/>
<path d="M9.48359 13.7668C9.2498 13.9883 9.21289 14.1483 9.21289 15.0588C9.21289 16.2769 9.39746 16.5969 10.1357 16.5969C10.874 16.5969 11.0586 16.2769 11.0586 15.0588C11.0586 14.1483 11.0217 13.9883 10.7879 13.7668C10.6402 13.6315 10.3572 13.5207 10.1357 13.5207C9.91425 13.5207 9.63125 13.6315 9.48359 13.7668Z" fill="#C0304F"/>
<path d="M52.1789 13.7668C51.9451 13.9883 51.9082 14.1483 51.9082 15.0588C51.9082 16.2769 52.0928 16.5969 52.831 16.5969C53.5693 16.5969 53.7539 16.2769 53.7539 15.0588C53.7539 14.1483 53.717 13.9883 53.4832 13.7668C53.3355 13.6315 53.0525 13.5207 52.831 13.5207C52.6096 13.5207 52.3266 13.6315 52.1789 13.7668Z" fill="#C0304F"/>
<path d="M7.01025 16.3631C6.37041 16.6215 6.19815 17.3105 6.64111 17.8766C6.8749 18.1719 6.96103 18.1965 7.93309 18.1965C8.80671 18.1965 9.00358 18.1596 9.21276 17.9504C9.47115 17.692 9.53268 17.1014 9.3358 16.7199C9.10202 16.2893 7.73621 16.0678 7.01025 16.3631Z" fill="#C0304F"/>
<path d="M11.3539 16.4C10.9355 16.5846 10.8125 16.7938 10.8125 17.3475C10.8125 17.9996 11.1693 18.1965 12.3383 18.1965C13.3103 18.1965 13.3965 18.1719 13.6302 17.8766C14.0855 17.2982 13.9009 16.6092 13.2242 16.3508C12.7566 16.1785 11.8092 16.2031 11.3539 16.4Z" fill="#C0304F"/>
<path d="M49.7075 16.3631C49.0677 16.6215 48.8954 17.3105 49.3384 17.8766C49.5722 18.1719 49.6583 18.1965 50.6304 18.1965C51.504 18.1965 51.7008 18.1596 51.91 17.9504C52.1684 17.692 52.2299 17.1014 52.0331 16.7199C51.7993 16.2893 50.4335 16.0678 49.7075 16.3631Z" fill="#C0304F"/>
<path d="M54.0512 16.4C53.6328 16.5846 53.5098 16.7938 53.5098 17.3475C53.5098 17.9996 53.8666 18.1965 55.0355 18.1965C56.0076 18.1965 56.0937 18.1719 56.3275 17.8766C56.7828 17.2982 56.5982 16.6092 55.9215 16.3508C55.4539 16.1785 54.5064 16.2031 54.0512 16.4Z" fill="#C0304F"/>
<path d="M9.45898 18.1963C9.2498 18.4055 9.21289 18.6024 9.21289 19.476C9.21289 20.4481 9.2375 20.5342 9.53281 20.768C9.71738 20.9156 9.98808 21.0264 10.1357 21.0264C10.2834 21.0264 10.5541 20.9156 10.7387 20.768C11.034 20.5342 11.0586 20.4481 11.0586 19.476C11.0586 18.2701 10.874 17.9502 10.1357 17.9502C9.86503 17.9502 9.60664 18.0487 9.45898 18.1963Z" fill="#232526"/>
<path d="M52.1543 18.1963C51.9451 18.4055 51.9082 18.6024 51.9082 19.476C51.9082 20.4481 51.9328 20.5342 52.2281 20.768C52.4127 20.9156 52.6834 21.0264 52.831 21.0264C52.9787 21.0264 53.2494 20.9156 53.434 20.768C53.7293 20.5342 53.7539 20.4481 53.7539 19.476C53.7539 18.2701 53.5693 17.9502 52.831 17.9502C52.5603 17.9502 52.3019 18.0487 52.1543 18.1963Z" fill="#232526"/>
<path d="M13.4329 21.9492C13.0761 22.0969 12.8792 22.4168 11.7964 24.5947C10.5783 27.0433 10.566 27.0925 10.566 27.9539C10.566 28.9997 10.8982 29.8365 11.5873 30.5009L12.0302 30.9316L9.5447 32.888C7.9082 34.18 6.92384 34.8813 6.62853 34.9428C6.39474 34.9921 6.05021 35.2135 5.86564 35.4227L5.52112 35.7919V38.7326V41.6857L5.84104 41.9318C6.25939 42.264 6.62853 42.264 7.04688 41.9318L7.3668 41.6857V39.2248V36.7762H13.9497H20.5327V42.5594V48.3425H13.9497H7.3668V46.6814C7.3668 45.1433 7.35449 45.008 7.0961 44.7742C6.94844 44.6388 6.66544 44.5281 6.44396 44.5281C6.22248 44.5281 5.93947 44.6388 5.79182 44.7742C5.53342 45.008 5.52112 45.1433 5.52112 46.6814V48.3425H3.5893C1.4114 48.3425 0.857696 48.5024 0.328601 49.2407C0.0702057 49.6099 0.0455966 49.7821 0.00868299 51.6647C-0.0159261 53.5842 -0.00362156 53.7196 0.254774 54.1748C0.427037 54.4701 0.746956 54.7655 1.07918 54.95L1.62058 55.233H12.0671H22.5137L25.9097 57.9523C27.78 59.4535 29.5642 60.7947 29.8718 60.9423C30.6716 61.2992 32.2958 61.2992 33.0833 60.9423C33.3909 60.7947 35.1874 59.4535 37.0577 57.9523L40.466 55.233H50.888C61.2115 55.233 61.3099 55.233 61.839 54.9746C62.1958 54.8024 62.4788 54.544 62.688 54.1871C62.9956 53.658 62.9956 53.5965 62.9587 51.6401C62.9218 49.7944 62.8972 49.6099 62.6388 49.2407C62.1097 48.5024 61.556 48.3425 59.3781 48.3425H57.4463V42.0549V35.7672L57.0279 35.3489C56.7818 35.1028 56.4865 34.9305 56.3143 34.9305C56.1051 34.9305 55.1822 34.2784 53.4719 32.9249L50.9372 30.9069L51.3801 30.4886C52.0569 29.8365 52.4014 28.9997 52.4014 27.9539C52.4014 27.0925 52.3891 27.0433 51.171 24.5947C50.0266 22.2938 49.9036 22.1092 49.4852 21.9369C49.1038 21.777 48.9808 21.7647 48.5993 21.9123C48.181 22.06 48.0702 22.2322 46.9382 24.4717C45.6585 26.9941 45.474 27.597 45.6585 28.6306C45.7939 29.3812 46.0769 29.9103 46.6183 30.464L47.0859 30.9316L44.588 32.9003C43.0131 34.143 41.9426 34.8936 41.6965 34.9428C41.1674 35.0536 40.7244 35.5212 40.5891 36.1118C40.4291 36.7762 40.4414 40.9598 40.5891 41.415C40.8228 42.0549 41.5611 42.2517 42.1148 41.8088L42.4347 41.5627V39.1633V36.7762H49.0177H55.6006V42.5594V48.3425H49.0177H42.4347V46.6445C42.4347 45.0203 42.4224 44.9218 42.1517 44.6757C41.8318 44.3681 41.2535 44.3312 40.9336 44.5773C40.5644 44.848 40.466 45.3648 40.466 46.8782V48.3425H31.4837H22.5014V42.4609C22.5014 39.2371 22.4399 36.3702 22.3783 36.1118C22.243 35.5212 21.8 35.0536 21.2709 34.9428C21.0248 34.8936 19.9543 34.143 18.3794 32.9003L15.8815 30.9316L16.3491 30.464C16.8905 29.9103 17.1735 29.3812 17.3089 28.6306C17.4934 27.6093 17.3089 26.9941 16.0538 24.4963C14.9833 22.343 14.8234 22.0969 14.4419 21.9369C13.9374 21.7278 13.9251 21.7278 13.4329 21.9492ZM15.3894 27.9908C15.3894 28.2 15.3155 28.5076 15.2294 28.6675C15.0694 28.9505 15.0694 28.9382 14.9587 28.3476C14.8234 27.5478 14.5896 27.3017 13.9743 27.3017C13.2484 27.3017 13.0269 27.5601 13.0269 28.3968L13.0146 29.0859L12.7808 28.7906C12.3624 28.2861 12.4609 27.6955 13.2361 26.1328L13.9497 24.7178L14.6634 26.1574C15.0941 27.0064 15.3894 27.757 15.3894 27.9908ZM50.4204 27.9908C50.4327 28.323 50.3466 28.606 50.1866 28.7906L49.9528 29.0859L49.9405 28.4214C49.9405 27.5601 49.719 27.3017 49.0177 27.3017C48.3778 27.3017 48.144 27.5355 48.0087 28.3476C47.898 28.9259 47.8857 28.9505 47.738 28.6798C47.4427 28.1384 47.5534 27.6709 48.2917 26.182L49.0177 24.7055L49.719 26.0959C50.2235 27.1048 50.4204 27.6339 50.4204 27.9908ZM14.5403 32.4819C14.688 32.5681 15.414 33.1095 16.1522 33.6878L17.4811 34.746L15.7585 34.7829C14.7987 34.7952 13.2115 34.7952 12.2148 34.7829L10.406 34.746L11.7349 33.7001C12.4732 33.1218 13.1868 32.5927 13.3222 32.5065C13.6544 32.3097 14.1958 32.3097 14.5403 32.4819ZM49.6452 32.5065C49.7806 32.5927 50.5065 33.1218 51.2325 33.7001L52.5614 34.746L50.8264 34.7829C49.879 34.7952 48.2794 34.7952 47.2827 34.7829L45.474 34.746L46.8029 33.7001C48.4024 32.445 48.5501 32.3589 49.0177 32.3589C49.2268 32.3589 49.4975 32.4204 49.6452 32.5065ZM18.2194 51.7878L20.0774 53.2643H11.0951C4.27836 53.2643 2.08815 53.2274 1.97741 53.1166C1.81745 52.9567 1.76823 50.8649 1.90358 50.5081C1.97741 50.3358 2.72799 50.3112 9.17557 50.3112H16.3737L18.2194 51.7878ZM43.2222 50.422C42.6193 51.0003 32.5542 58.9736 32.2343 59.1213C31.6929 59.3797 30.8931 59.2935 30.3517 58.9121C29.9702 58.6414 19.9913 50.6557 19.7452 50.422C19.6713 50.3604 24.5193 50.3112 31.4837 50.3112C38.5711 50.3112 43.2961 50.3604 43.2222 50.422ZM61.0638 50.5081C61.1992 50.8649 61.1499 52.9567 60.99 53.1166C60.8792 53.2274 58.689 53.2643 51.8723 53.2643H42.9023L44.7234 51.7878L46.5568 50.3235L53.7672 50.3112C60.2394 50.3112 60.99 50.3358 61.0638 50.5081Z" fill="#C0304F"/>
</svg>
