<svg width="63" height="64" viewBox="0 0 63 64" fill="none" xmlns="http://www.w3.org/2000/svg">
<path d="M28.7188 1.21016L28.3004 1.62852V5.02457V8.42062H24.9044H21.5083L21.09 8.83898L20.6716 9.25734V11.6198V13.9823L21.09 14.4006L21.5083 14.819H24.9044H28.3004V17.2676V19.7285L28.6204 19.9746C29.0387 20.3068 29.4079 20.3068 29.8262 19.9746L30.1461 19.7285V16.5539C30.1461 13.6378 30.1338 13.3671 29.9246 13.1825C29.7278 12.9979 29.2725 12.9733 26.1102 12.9733H22.5173V11.6198V10.2663H26.1225C29.4694 10.2663 29.7524 10.254 29.937 10.0448C30.1215 9.84795 30.1461 9.39268 30.1461 6.23042V2.63749H31.4996H32.8531V6.24272C32.8531 9.58956 32.8654 9.87256 33.0746 10.0571C33.2715 10.2417 33.7267 10.2663 36.889 10.2663H40.4819V11.6198V12.9733H36.8767C33.5299 12.9733 33.2469 12.9856 33.0623 13.1948C32.8777 13.404 32.8531 14.1053 32.8531 20.7006V27.9848H31.4996H30.1461V25.5485C30.1461 23.1492 30.1461 23.0999 29.8631 22.8415C29.5063 22.497 28.928 22.497 28.5711 22.8169C28.3128 23.063 28.3004 23.1615 28.3004 25.5239V27.9602L25.8149 28.0095C23.514 28.0464 23.2679 28.071 22.7511 28.3294C21.3853 29.0061 20.5609 30.1381 20.4501 31.5039L20.3886 32.2914H17.7062H15.0115V31.1102C15.0115 29.769 14.8393 29.3383 14.1994 29.0307C13.6211 28.76 6.06614 28.76 5.48783 29.0307C4.84799 29.3383 4.67573 29.769 4.67573 31.1102V32.2914H2.99C1.0828 32.2914 0.713663 32.4145 0.246091 33.1774C0.0246091 33.5465 0 33.8049 0 36.1058C0 38.4068 0.0246091 38.6652 0.246091 39.0343C0.590618 39.6003 1.18124 39.9203 1.8826 39.9203H2.46091V42.9964V46.0848L2.76852 46.3801C3.16227 46.7862 3.72828 46.7862 4.12202 46.3801L4.42964 46.0848V42.9964V39.9203H9.22841H14.0272V47.8567V55.7931H9.22841H4.42964V52.717V49.6285L4.12202 49.3332C3.72828 48.9272 3.16227 48.9272 2.76852 49.3332L2.46091 49.6285V55.6455V61.6624L2.74391 62.2038C2.92848 62.536 3.21149 62.8436 3.5191 63.0159L3.99898 63.2989H31.4996H59.0003L59.4802 63.0159C59.7878 62.8436 60.0708 62.536 60.2553 62.2038L60.5383 61.6624V50.7852V39.9203H61.129C61.818 39.9203 62.4086 39.6003 62.7532 39.0343C62.9746 38.6652 62.9993 38.4068 62.9993 36.1058C62.9993 33.8049 62.9746 33.5465 62.7532 33.1774C62.2856 32.4145 61.9165 32.2914 60.0216 32.2914H58.3235V31.1102C58.3235 29.769 58.1513 29.3383 57.5114 29.0307C56.9331 28.76 49.3781 28.76 48.7998 29.0307C48.16 29.3383 47.9877 29.769 47.9877 31.1102V32.2914H45.293H42.6106L42.5491 31.5039C42.4384 30.1381 41.7001 29.1046 40.322 28.3909C39.6945 28.0587 39.6206 28.0464 37.1966 28.0095L34.6988 27.9602V21.3896V14.819H38.0949H41.4909L41.9093 14.4006L42.3276 13.9823V11.6198V9.25734L41.9093 8.83898L41.4909 8.42062H38.0949H34.6988V5.02457V1.62852L34.2805 1.21016L33.8621 0.791809H31.4996H29.1372L28.7188 1.21016ZM39.4484 30.1874C40.0021 30.4335 40.4204 30.9379 40.5435 31.5039C40.5927 31.7008 40.6542 31.9592 40.6911 32.07C40.7403 32.2791 40.2482 32.2914 31.4996 32.2914H22.2712L22.345 31.9469C22.382 31.7623 22.4435 31.5039 22.4804 31.3686C22.6034 30.901 23.0464 30.4212 23.5509 30.1874C24.0308 29.9782 24.4983 29.9536 31.4996 29.9536C38.5009 29.9536 38.9685 29.9782 39.4484 30.1874ZM13.1659 31.5532V32.2914H9.84363H6.52141V31.5532V30.8149H9.84363H13.1659V31.5532ZM56.4779 31.5532V32.2914H53.1556H49.8334V31.5532V30.8149H53.1556H56.4779V31.5532ZM17.4725 36.1058V38.0746L9.69598 38.05L1.9072 38.0131L1.87029 36.2289C1.85799 35.2568 1.87029 34.3832 1.8949 34.2971C1.94412 34.174 3.48219 34.1371 9.72059 34.1371H17.4725V36.1058ZM21.1884 41.446C21.2253 48.6565 21.2253 48.7672 21.4837 49.1118C21.6314 49.2963 22.3697 49.8254 23.1448 50.2684C30.7367 54.6365 31.0444 54.8088 31.4996 54.8088C31.9549 54.8088 32.3856 54.575 39.8544 50.2684C40.6296 49.8254 41.3679 49.2963 41.5155 49.1118C41.7739 48.7672 41.7739 48.6565 41.8108 41.446L41.8354 34.1371H42.6968H43.5581V42.0489C43.5581 49.444 43.5458 49.9854 43.3489 50.1576C43.2259 50.2561 40.5066 51.8434 37.3197 53.689L31.4996 57.0359L25.6919 53.689C22.4927 51.8434 19.7734 50.2561 19.6627 50.1576C19.4535 49.9854 19.4412 49.444 19.4412 42.0489V34.1371H20.3025H21.1638L21.1884 41.446ZM39.8421 41.0523L39.8052 47.9797L35.7447 50.3422C33.5176 51.6342 31.5981 52.6924 31.4996 52.6924C31.4012 52.6924 29.494 51.6342 27.2546 50.3422L23.1941 47.9797L23.1571 41.0523L23.1325 34.1371H31.4996H39.8667L39.8421 41.0523ZM61.0921 36.1058V38.0131L53.3156 38.05L45.5268 38.0746V36.1058V34.1371L53.3156 34.1617L61.0921 34.1986V36.1058ZM17.4848 45.1128C17.4971 50.6621 17.5094 50.8344 18.1 51.4619C18.4199 51.7941 29.8139 58.4386 30.6998 58.8077C31.2412 59.0415 31.758 59.0415 32.3117 58.8077C33.21 58.4386 44.5794 51.7941 44.887 51.4619C45.4899 50.8221 45.5022 50.6621 45.5145 45.1128L45.5268 39.9203H46.2651H47.0034V50.6867V61.4532H31.4996H15.9959V50.6867V39.9203H16.7342H17.4725L17.4848 45.1128ZM58.5696 47.8567V55.7931H56.1702C53.8693 55.7931 53.7709 55.8054 53.5248 56.0638C53.2048 56.4206 53.2048 56.999 53.5494 57.3558C53.8078 57.6265 53.8693 57.6388 56.1948 57.6388H58.5696V59.3983C58.5696 60.6042 58.5204 61.2071 58.422 61.3056C58.3112 61.4163 57.0808 61.4532 53.6232 61.4532H48.9721V59.546V57.6388H49.698C50.3379 57.6388 50.4609 57.6019 50.6824 57.3189C51.0146 56.9005 51.0146 56.433 50.6701 56.0761C50.4486 55.8423 50.2764 55.7931 49.6857 55.7931H48.9721V47.8567V39.9203H53.7709H58.5696V47.8567ZM14.0272 59.546V61.4532H9.42528C6.89054 61.4532 4.73725 61.4163 4.62651 61.3794C4.45424 61.3179 4.42964 61.0349 4.42964 59.4722V57.6388H9.22841H14.0272V59.546Z" fill="#C0304F"/>
</svg>
