<svg width="63" height="64" viewBox="0 0 63 64" fill="none" xmlns="http://www.w3.org/2000/svg">
<path d="M19.4172 0.582073C18.6666 1.22191 18.6174 2.05862 19.2818 3.01837C19.5279 3.38751 19.9832 4.03965 20.2785 4.48261C21.472 6.22986 22.5302 8.80151 22.9609 11.004C23.1208 11.853 23.17 13.0958 23.2193 17.7961L23.2808 23.5547H20.5246C17.916 23.5547 17.7561 23.567 17.4977 23.8007C17.0916 24.1822 17.1285 24.9328 17.5469 25.265C17.8545 25.5111 18.0267 25.5234 20.8445 25.5234H23.8099L24.9788 26.6923L26.1477 27.8612H19.6017C15.9596 27.8612 12.502 27.7997 11.8006 27.7382C10.361 27.5905 8.35538 27.1599 7.0757 26.7292L6.21439 26.4462L6.17747 25.2035L6.14056 23.9607L7.53097 24.4283C9.30283 25.0189 10.3733 25.2404 12.3913 25.4249C13.8555 25.5603 14.0278 25.548 14.3231 25.3511C14.7907 25.0435 14.926 24.6251 14.7168 24.1084C14.5076 23.6285 14.4338 23.6039 12.8588 23.4931C9.69657 23.2716 6.62044 22.2381 4.18414 20.577C3.74117 20.2816 3.08903 19.8264 2.7199 19.5803C1.99393 19.0758 1.3664 18.9897 0.751168 19.2973C-0.0486271 19.7156 0.000591098 18.9035 0.000591098 31.7987C0.000591098 44.6939 -0.0486271 43.8818 0.751168 44.3001C1.3664 44.6077 1.99393 44.5216 2.7199 44.0171C3.08903 43.771 3.74117 43.3158 4.18414 43.0204C5.93138 41.8269 8.49073 40.781 10.7055 40.338C11.5669 40.1658 12.785 40.1289 17.51 40.0797L23.2808 40.0181L23.2193 45.789C23.17 50.4893 23.1208 51.7444 22.9609 52.5934C22.5302 54.7959 21.472 57.3675 20.2785 59.1148C19.9832 59.5577 19.5279 60.2099 19.2818 60.579C18.7773 61.305 18.6912 61.9325 18.9988 62.5478C19.4172 63.3475 18.6051 63.2983 31.5002 63.2983C44.3954 63.2983 43.5833 63.3475 44.0016 62.5478C44.3093 61.9325 44.2231 61.305 43.7186 60.579C43.4725 60.2099 43.0173 59.5577 42.722 59.1148C41.5284 57.3675 40.4702 54.7959 40.0396 52.5934C39.8796 51.7444 39.8304 50.5016 39.7812 45.789L39.7197 40.0427H42.7589H45.7858L46.1057 39.7228C46.3641 39.4644 46.401 39.3291 46.3518 38.9599C46.2042 38.1232 46.2534 38.1355 42.5374 38.0986L39.1783 38.0617L38.0216 36.9051L36.8527 35.7362H43.3987C47.0409 35.7362 50.4984 35.7977 51.1998 35.8592C52.6517 36.0069 54.9281 36.4867 56.0355 36.8805L56.7861 37.1512L56.823 38.4062L56.8599 39.6613L55.8386 39.2922C53.6976 38.5047 50.0801 37.8894 49.3172 38.1848C48.6897 38.4185 48.5174 39.3168 49.0096 39.7597C49.2065 39.9566 49.5264 40.0304 50.2647 40.1043C53.4638 40.3873 56.4292 41.3962 58.8163 43.0204C59.2593 43.3158 59.9114 43.771 60.2806 44.0171C61.0065 44.5216 61.6341 44.6077 62.2493 44.3001C63.0491 43.8818 62.9999 44.6939 62.9999 31.7987C62.9999 18.9035 63.0491 19.7156 62.2493 19.2973C61.6341 18.9897 61.0065 19.0758 60.2806 19.5803C59.9114 19.8264 59.2593 20.2816 58.8163 20.577C57.0691 21.7705 54.5097 22.8164 52.2949 23.2593C51.4336 23.4316 50.2154 23.4685 45.4905 23.5177L39.7197 23.5793L39.7812 17.8084C39.8304 13.0835 39.8673 11.8653 40.0396 11.004C40.4825 8.7892 41.5284 6.22986 42.722 4.48261C43.0173 4.03965 43.4725 3.38751 43.7186 3.01837C44.2231 2.2924 44.3093 1.66487 44.0016 1.04964C43.6079 0.311371 43.571 0.299068 39.3259 0.299068H35.45L35.2039 0.618988C34.8717 1.03734 34.8717 1.40648 35.2039 1.81253L35.45 2.14475L38.6369 2.16936L41.836 2.20627L41.0978 3.30138C40.6917 3.9166 40.3595 4.4457 40.3595 4.50722C40.3595 4.55644 36.3728 4.60566 31.5002 4.60566C26.6276 4.60566 22.641 4.55644 22.641 4.50722C22.641 4.4457 22.3087 3.9166 21.9027 3.30138L21.1644 2.20627L26.7138 2.14475C32.017 2.08323 32.2631 2.07092 32.4354 1.84944C32.6938 1.49261 32.6569 0.840469 32.3615 0.545158C32.1278 0.311371 31.9555 0.299068 25.9386 0.299068H19.7494L19.4172 0.582073ZM26.5661 7.76793C27.4766 10.9056 27.5628 12.0253 27.5628 19.9617V26.4462L26.3938 25.2773L25.2249 24.1084V18.7559C25.2249 11.9269 25.1019 10.7087 24.1298 7.82945L23.6622 6.45134H24.9173H26.1724L26.5661 7.76793ZM34.6994 6.53747C34.6994 6.599 34.5641 7.09118 34.3918 7.65718C34.2318 8.21089 33.9734 9.37982 33.8135 10.2411C33.5305 11.7792 33.5305 11.9638 33.5305 20.5646C33.5305 28.821 33.5428 29.3378 33.752 29.547C33.9611 29.7561 34.4779 29.7684 42.7343 29.7684C51.3352 29.7684 51.5197 29.7684 53.0578 29.4854C53.9191 29.3255 55.088 29.0671 55.6417 28.9071C56.2077 28.7349 56.6999 28.5995 56.7615 28.5995C56.8107 28.5995 56.8476 30.0391 56.8476 31.7987C56.8476 33.5582 56.8107 34.9979 56.7615 34.9979C56.6999 34.9979 56.2077 34.8625 55.6417 34.6903C55.088 34.5303 53.9191 34.2719 53.0578 34.1119C51.5197 33.8289 51.3352 33.8289 42.7343 33.8289C34.4779 33.8289 33.9611 33.8413 33.752 34.0504C33.5428 34.2596 33.5305 34.7764 33.5305 43.0327C33.5305 51.6336 33.5305 51.8182 33.8135 53.3563C33.9734 54.2176 34.2318 55.3865 34.3918 55.9402C34.5641 56.5062 34.6994 56.9984 34.6994 57.0476C34.6994 57.1091 33.2598 57.1461 31.5002 57.1461C29.7407 57.1461 28.301 57.1091 28.301 57.0476C28.301 56.9984 28.4364 56.5062 28.6087 55.9402C29.1747 53.9961 29.4454 51.9905 29.4577 49.4926C29.47 46.921 29.4577 46.8595 28.6456 46.7241C28.2764 46.6749 28.1411 46.7118 27.895 46.9579C27.612 47.2409 27.5997 47.3393 27.5259 49.4557C27.4889 50.6739 27.3659 52.1996 27.2552 52.8395C27.0583 54.0699 26.5415 56.0756 26.2708 56.74L26.0985 57.1461H24.8804H23.6622L24.1298 55.7556C25.1019 52.8887 25.2249 51.6705 25.2249 44.8415V39.489L26.3938 38.3201L27.5628 37.1512V40.4734C27.5628 43.6972 27.5751 43.7833 27.8335 44.0663C28.2026 44.4601 28.8301 44.4478 29.2362 44.0417L29.5438 43.7341L29.5069 38.9969C29.47 34.6534 29.4577 34.2473 29.2485 34.0504C29.0393 33.8413 28.5102 33.8289 20.2662 33.8289C11.6653 33.8289 11.4807 33.8289 9.94266 34.1119C9.08134 34.2719 7.91241 34.5303 7.35871 34.6903C6.7927 34.8625 6.30052 34.9979 6.2513 34.9979C6.18978 34.9979 6.15286 33.5582 6.15286 31.7987C6.15286 30.0391 6.18978 28.5995 6.2513 28.5995C6.30052 28.5995 6.7927 28.7349 7.35871 28.9071C7.91241 29.0671 9.08134 29.3255 9.94266 29.4854C11.4807 29.7684 11.6653 29.7684 20.2662 29.7684C28.5225 29.7684 29.0393 29.7561 29.2485 29.547C29.4577 29.3378 29.47 28.821 29.47 20.5646C29.47 11.9638 29.47 11.7792 29.187 10.2411C29.027 9.37982 28.7686 8.21089 28.6087 7.65718C28.4364 7.09118 28.301 6.599 28.301 6.53747C28.301 6.48825 29.7407 6.45134 31.5002 6.45134C33.2598 6.45134 34.6994 6.48825 34.6994 6.53747ZM38.9937 7.46031C38.4769 8.87534 38.0585 10.7087 37.8986 12.2222C37.8371 12.9235 37.7755 15.8766 37.7755 18.8051V24.1084L36.5943 25.2773L35.4254 26.4462L35.4746 19.0635C35.5238 12.8497 35.5607 11.5208 35.733 10.6349C35.9791 9.40443 36.4959 7.4234 36.7297 6.84509L36.9019 6.45134H38.1324H39.3628L38.9937 7.46031ZM3.12595 22.2873C3.66735 22.6441 4.14722 22.9394 4.20875 22.9394C4.25796 22.9394 4.30718 26.9261 4.30718 31.7987C4.30718 36.6713 4.25796 40.658 4.20875 40.658C4.14722 40.658 3.66735 40.9533 3.12595 41.3101C2.59685 41.6669 2.08006 42.0115 2.00623 42.0607C1.88319 42.1345 1.84627 40.0427 1.84627 31.7987C1.84627 23.5547 1.88319 21.4629 2.00623 21.5367C2.08006 21.5859 2.59685 21.9305 3.12595 22.2873ZM61.1296 36.9666L61.0927 42.1345L59.9975 41.3962C59.3823 40.9902 58.8532 40.658 58.7917 40.658C58.7425 40.658 58.6933 36.6713 58.6933 31.7987C58.6933 26.9261 58.7425 22.9394 58.7917 22.9394C58.8532 22.9394 59.3823 22.6072 59.9975 22.2012L61.0927 21.4629L61.1296 26.6308C61.1419 29.4731 61.1419 34.1243 61.1296 36.9666ZM56.7984 26.3355C56.663 26.6923 53.3654 27.5167 51.1998 27.7259C50.4861 27.7997 47.1024 27.8612 43.3987 27.8612H36.8527L38.0216 26.6923L39.1906 25.5234H44.543C51.3475 25.5234 52.5779 25.4003 55.4326 24.4406L56.7861 23.9853L56.823 25.0804C56.8353 25.6833 56.8353 26.2493 56.7984 26.3355ZM24.9788 36.9051L23.8099 38.074H18.4574C11.6284 38.074 10.4102 38.1971 7.54328 39.1691L6.15286 39.6367V38.3816V37.1266L7.48175 36.7328C10.6317 35.8223 11.21 35.7731 19.3802 35.7485L26.1477 35.7362L24.9788 36.9051ZM37.7755 44.7923C37.7755 47.7208 37.8371 50.6739 37.8986 51.3752C38.0585 52.8887 38.4769 54.7221 38.9937 56.1371L39.3628 57.1584L38.1078 57.1214L36.8527 57.0845L36.5697 56.2232C36.1144 54.8943 35.7084 52.9133 35.5607 51.4244C35.4992 50.6739 35.4377 47.1671 35.4377 43.6111V37.1512L36.6066 38.3201L37.7755 39.489V44.7923ZM40.3595 59.0902C40.3595 59.1517 40.6917 59.6808 41.0978 60.296L41.836 61.3911L36.6681 61.428C33.8258 61.4403 29.1747 61.4403 26.3323 61.428L21.1644 61.3911L21.9027 60.296C22.3087 59.6808 22.641 59.1517 22.641 59.0902C22.641 59.041 26.6276 58.9917 31.5002 58.9917C36.3728 58.9917 40.3595 59.041 40.3595 59.0902Z" fill="#C0304F"/>
</svg>
