<svg width="59" height="64" viewBox="0 0 59 64" fill="none" xmlns="http://www.w3.org/2000/svg">
<path d="M28.0304 0.450356C27.329 0.770275 4.15959 17.0246 3.71662 17.5045C3.48284 17.7628 3.21214 18.1935 3.13831 18.4642C3.02757 18.821 2.99065 23.3491 2.99065 36.4165V53.889L2.36312 53.9505C1.58794 54.0243 0.837359 54.5288 0.480528 55.2179C0.246741 55.6608 0.222132 55.9562 0.185219 58.3678C0.16061 60.0659 0.197523 61.2225 0.283655 61.5424C0.443614 62.1576 1.05884 62.8836 1.60024 63.1051C2.19086 63.3635 56.2078 63.3635 56.7984 63.1051C57.3398 62.8836 57.955 62.1576 58.115 61.5424C58.2134 61.2102 58.2381 60.0536 58.2134 58.3063C58.1888 56.0669 58.1396 55.5255 57.9674 55.2179C57.549 54.455 56.7123 53.9259 55.9002 53.9259H55.408V36.4411C55.408 23.3491 55.3711 18.821 55.2604 18.4642C55.1865 18.1935 54.9158 17.7628 54.682 17.5045C54.3375 17.123 34.2319 2.97279 30.9712 0.80719C30.3313 0.37653 30.1837 0.339615 29.3347 0.302704C28.7318 0.290398 28.2642 0.339615 28.0304 0.450356ZM41.2209 10.3801C47.6438 14.859 53.0086 18.6488 53.1686 18.821L53.4393 19.1163V36.5273V53.9259H52.4549H51.4706V39.1358V24.3458L51.1999 24.0628C50.72 23.546 49.8956 23.7429 49.6249 24.4442C49.5387 24.6657 49.5018 29.5629 49.5018 39.3573V53.9259H33.1737H16.8456L16.5626 54.1966C16.2057 54.5288 16.1934 55.1441 16.5133 55.5378L16.7471 55.8331L36.3606 55.87C54.5959 55.8946 55.974 55.9069 56.1217 56.1038C56.2201 56.2515 56.2693 56.9774 56.2693 58.6755C56.2693 60.9887 56.257 61.0502 55.9986 61.2348C55.7525 61.4071 53.0086 61.4317 29.1993 61.4317C5.39004 61.4317 2.64613 61.4071 2.40004 61.2348C2.14164 61.0502 2.12934 60.9887 2.12934 58.7124C2.12934 57.3343 2.17855 56.2761 2.25238 56.1284C2.37543 55.9069 2.5723 55.8946 7.7279 55.8946C11.4316 55.8946 13.1665 55.8577 13.3757 55.7593C13.9909 55.4763 14.077 54.4919 13.5356 54.1105C13.3265 53.9628 12.8097 53.9259 11.087 53.9259H8.89684L8.92144 37.4132L8.95836 20.8882L18.4944 14.2191C23.7361 10.5524 28.0673 7.55008 28.1288 7.53777C28.1781 7.53777 28.215 8.4114 28.215 9.4942V11.4506L27.6367 11.5368C26.8615 11.6475 25.6187 12.1397 24.7697 12.6811C23.2439 13.6285 21.9889 15.2404 21.3859 17.0246C21.0537 18.0089 21.0291 18.2058 20.9553 20.9497L20.8815 23.8413L19.5526 27.6557C18.8143 29.809 18.2114 31.7654 18.1745 32.1469C18.1129 32.639 18.1622 33.0082 18.3344 33.525L18.5805 34.2386H17.1778C15.8489 34.2386 15.7628 34.2509 15.4798 34.5462C15.0737 34.94 15.0737 35.506 15.4798 35.8997L15.7751 36.2074H20.3401H24.8927V37.3394C24.8927 38.6929 25.1019 39.2466 25.8402 39.911C26.1109 40.1571 26.3939 40.3786 26.4554 40.4032C26.5292 40.4401 26.4308 41.7075 26.2093 43.7747C25.8402 47.0354 25.8402 47.1092 26.0494 47.8228C26.4431 49.1517 27.7597 50.1115 29.1993 50.1115C30.639 50.1115 31.9555 49.1517 32.3493 47.8228C32.5585 47.1092 32.5585 47.0354 32.1893 43.7747C31.9679 41.7075 31.8694 40.4401 31.9432 40.4032C32.0048 40.3786 32.2878 40.1571 32.5585 39.911C33.2967 39.2466 33.5059 38.6929 33.5059 37.3394V36.2074H38.0586H42.6236L42.9189 35.8997C43.3249 35.506 43.3249 34.94 42.9189 34.5462C42.6359 34.2509 42.5498 34.2386 41.2209 34.2386H39.8181L40.0642 33.525C40.2365 33.0082 40.2857 32.639 40.2242 32.1469C40.1873 31.7531 39.5967 29.8213 38.8461 27.6557L37.5172 23.8413L37.4434 20.9497C37.3695 18.2058 37.3449 18.0089 37.0127 17.0246C36.6067 15.831 35.77 14.4898 34.9086 13.6777C33.7766 12.5949 32.1155 11.7336 30.762 11.5368L30.1837 11.4506V9.43267V7.42703L40.0027 14.293C45.4044 18.0705 49.9448 21.2327 50.0924 21.3066C50.4739 21.5034 50.7815 21.4788 51.1506 21.1835C51.3967 20.9989 51.4706 20.8267 51.4706 20.4822C51.4706 20.2361 51.4213 19.9654 51.3721 19.8792C51.3229 19.7931 46.4011 16.3232 40.458 12.1643C31.1434 5.64288 29.5685 4.58468 29.1993 4.58468C28.8302 4.58468 27.2429 5.65518 17.9407 12.152C11.9976 16.3232 7.07576 19.7931 7.02654 19.8792C6.97733 19.9531 6.92811 27.6557 6.92811 36.9702V53.9259H5.94374H4.95938V36.5396C4.95938 22.4263 4.98399 19.104 5.11934 18.9318C5.20547 18.8087 10.5703 15.0066 17.0301 10.4909C26.48 3.87102 28.8425 2.25912 29.1624 2.25912C29.4946 2.24682 31.4388 3.56341 41.2209 10.3801ZM30.4421 13.4932C32.8046 13.9977 34.7241 15.8926 35.2901 18.2673C35.4131 18.8087 35.4746 19.7685 35.4746 21.4788V23.9028L36.336 26.4252L37.185 28.9477H29.1993H21.2137L22.0627 26.4252L22.924 23.9028V21.4788C22.924 19.7685 22.9855 18.8087 23.1086 18.2673C23.6623 15.9172 25.5818 14.01 27.895 13.5055C28.8794 13.284 29.4577 13.284 30.4421 13.4932ZM38.1078 31.6055C38.3662 32.4422 38.2924 32.9713 37.8494 33.5127C37.2219 34.2509 37.4188 34.2386 29.1993 34.2386C20.9799 34.2386 21.1768 34.2509 20.5492 33.5127C20.1063 32.9713 20.0324 32.4422 20.2908 31.6055L20.5123 30.9164H29.1993H37.8863L38.1078 31.6055ZM31.5372 37.1548C31.5372 37.9546 31.5003 38.1392 31.2665 38.3853C31.0081 38.656 30.922 38.6683 29.2116 38.6683C27.5505 38.6683 27.4152 38.656 27.1445 38.3976C26.8984 38.1638 26.8615 38.0161 26.8615 37.1671V36.2074H29.1993H31.5372V37.1548ZM29.8761 40.9077C29.9007 41.0677 30.073 42.4827 30.2575 44.0577C30.6144 47.2568 30.5897 47.4783 29.8884 47.909C29.4085 48.2043 28.9902 48.2043 28.5103 47.909C27.8089 47.4783 27.7843 47.2568 28.1411 44.0577C28.3257 42.4827 28.498 41.0677 28.5226 40.9077C28.5841 40.6739 28.6702 40.637 29.1993 40.637C29.7284 40.637 29.8146 40.6739 29.8761 40.9077Z" fill="#C0304F"/>
</svg>
